P2
# Generated from Ne e bitno od deka!
224 64
255
65 70 70 69 65 62 62 58 57 62 67 70 72 72 67 63 60 58 59 60 60 60 59 59 60 62 60 64 76 77 76 79 94 91 86 86 87 87 88 86 86 87 88 89 89 88 84 82 79 82 82 80 87 93 85 80 79 74 73 73 74 74 74 76 214 214 210 212 209 202 187 189 116 113 93 75 82 72 81 75 71 69 66 63 60 57 63 67 63 63 64 63 61 61 63 62 72 66 65 69 74 71 69 68 66 65 66 66 65 65 64 62 62 61 61 63 65 65 67 71 72 72 70 69 68 66 62 59 86 82 83 80 75 73 72 73 74 75 69 67 68 62 60 62 65 67 67 68 69 71 71 70 66 67 68 68 67 72 75 72 60 58 59 58 60 63 63 65 66 64 63 62 60 57 58 53 49 51 46 47 53 55 57 58 52 51 52 52 52 54 53 52 58 54 53 55 57 58 57 59 59 60 60 59 58 59 59 59 59 56 56 57 61 63 66 64 63 61 59 58 58 56 55 57
69 76 76 76 79 81 77 75 73 74 76 70 68 65 62 56 50 48 46 46 49 52 52 55 59 62 61 64 71 72 70 71 100 92 88 86 85 85 86 85 86 88 89 91 92 88 83 81 78 80 81 80 85 87 85 82 78 74 75 73 79 85 84 86 209 212 209 215 213 208 189 194 119 118 91 77 85 73 81 80 76 73 68 62 59 56 61 65 62 59 61 62 61 61 61 60 76 69 66 68 72 69 68 67 66 65 64 63 61 61 60 60 61 61 61 63 65 65 66 69 68 68 67 67 66 67 63 59 86 82 88 85 79 76 73 70 69 70 65 65 69 63 61 62 64 64 62 65 68 72 73 73 68 70 70 68 67 73 75 71 60 60 60 61 62 67 66 69 70 67 65 63 61 59 58 54 52 52 49 49 53 54 57 58 54 53 53 53 53 54 55 55 61 57 57 59 61 61 59 55 54 53 54 54 53 54 54 56 57 53 56 59 62 62 64 63 62 61 60 60 58 56 54 55
71 79 81 80 82 84 78 77 76 72 69 69 62 61 58 57 53 50 47 46 46 47 49 55 60 63 62 63 68 69 68 68 100 95 92 87 85 84 84 86 87 89 90 91 90 88 84 83 81 81 81 80 83 85 85 84 81 77 76 75 78 80 77 80 211 212 210 212 211 203 181 185 109 106 88 74 79 69 75 80 89 83 76 69 63 59 63 65 62 60 61 59 57 56 57 57 75 70 68 67 67 66 66 67 67 67 66 65 65 64 64 64 64 63 63 63 62 61 62 64 67 67 67 67 67 65 64 61 85 84 90 90 84 78 73 68 66 67 63 65 70 68 64 63 61 61 60 65 69 71 75 74 67 67 69 66 67 72 74 70 60 60 61 64 68 76 76 79 79 73 70 65 63 62 60 60 60 59 53 53 52 53 56 58 57 57 55 54 55 54 56 59 64 61 62 63 64 64 62 54 52 51 52 53 53 53 54 54 55 49 55 60 61 60 59 60 61 61 60 59 57 55 52 53
83 81 85 83 80 82 82 81 78 69 63 71 63 65 62 64 61 57 54 53 53 55 57 60 62 64 62 62 66 68 68 70 101 103 99 90 85 83 83 86 88 89 90 90 88 88 87 86 85 82 80 80 80 81 85 87 86 81 78 79 82 83 83 89 212 210 210 206 206 199 168 174 102 105 86 73 77 71 74 83 102 93 87 74 67 60 59 58 56 56 56 53 50 51 53 53 77 69 66 66 66 67 67 67 68 68 68 67 67 68 68 66 64 63 64 63 62 62 64 66 70 69 68 68 68 66 66 64 72 72 79 79 81 80 75 72 70 69 67 69 74 74 72 70 66 64 64 67 73 72 77 75 68 66 70 66 70 72 72 67 62 63 65 69 71 79 78 81 83 77 76 69 65 62 59 59 59 59 54 53 52 53 57 57 57 58 55 54 55 54 56 58 64 63 63 63 65 64 61 57 55 54 55 56 57 56 56 56 54 51 54 59 61 58 59 59 60 60 59 57 56 55 54 55
88 100 105 104 103 104 110 112 106 90 82 74 68 72 70 72 71 66 63 60 61 62 62 63 63 64 61 59 63 63 66 70 101 105 102 92 85 84 84 85 86 88 89 89 89 89 88 88 86 82 80 81 81 81 85 88 86 81 80 81 83 88 94 98 210 207 209 202 202 193 154 156 87 94 79 68 73 71 72 82 97 89 84 68 62 56 56 56 55 57 57 55 53 51 52 53 85 72 70 72 73 70 68 67 65 66 67 65 62 62 62 65 67 68 67 65 68 72 75 76 73 71 68 67 67 68 68 68 69 70 77 78 80 82 79 76 73 72 70 72 76 76 73 71 67 65 63 68 76 75 77 75 68 66 70 66 70 71 70 65 67 73 77 83 85 94 92 98 101 93 92 81 76 68 64 62 59 60 57 56 53 53 55 57 57 57 55 53 54 50 53 54 63 64 62 63 64 62 59 58 57 57 57 57 58 56 58 59 57 55 55 60 62 58 63 62 61 59 58 57 55 54 52 52
90 99 103 100 97 99 106 112 105 88 84 71 69 74 71 73 72 68 65 63 62 61 62 63 64 64 59 57 61 61 64 68 102 103 103 92 85 85 86 82 84 85 87 90 90 89 87 87 86 80 79 82 82 80 85 88 85 78 82 81 78 83 95 91 212 211 206 196 197 180 132 132 72 79 73 63 68 66 66 78 91 84 79 63 55 52 55 56 56 58 59 56 55 55 54 53 87 76 75 76 76 73 71 70 67 67 67 65 63 64 64 66 68 69 69 66 70 76 78 78 74 71 67 67 68 69 70 72 65 67 75 77 78 80 79 76 73 73 71 72 76 75 66 66 64 62 60 68 80 78 77 75 66 64 68 64 68 68 69 64 70 73 76 83 84 94 92 97 100 94 93 81 75 66 63 61 59 60 57 56 54 55 56 56 56 57 54 53 53 52 55 54 61 62 62 63 64 62 59 55 57 57 56 58 58 56 59 61 59 59 58 61 62 60 66 63 60 59 59 58 56 53 51 53
72 80 85 84 82 85 89 96 90 80 82 73 70 75 70 70 69 67 66 66 66 66 65 64 64 62 57 57 62 63 63 68 112 112 108 93 88 86 83 82 82 82 85 90 93 92 90 89 87 80 78 82 82 82 84 83 82 82 91 83 79 78 96 97 210 215 206 192 192 169 110 117 80 85 73 70 75 71 71 76 82 79 75 64 56 53 55 54 55 55 58 55 54 54 53 55 86 76 75 75 73 78 76 76 74 73 70 69 68 70 73 70 65 65 69 69 69 73 75 76 77 73 68 68 71 71 73 76 62 64 73 75 75 76 76 73 70 71 71 71 75 73 61 63 65 64 62 68 83 80 77 76 63 61 65 61 65 66 69 66 67 68 72 77 78 87 85 93 94 94 93 87 83 77 74 71 67 66 61 59 56 54 57 57 58 58 57 57 56 55 56 57 61 62 62 63 64 62 59 54 59 59 57 62 65 62 63 63 59 65 65 63 62 64 66 61 58 57 59 60 61 62 63 68
52 60 62 65 60 64 68 76 73 69 73 71 71 69 71 68 62 62 62 67 70 70 66 65 64 60 58 56 60 63 63 66 108 107 102 90 86 86 85 84 83 84 86 89 89 88 86 85 85 81 80 83 83 82 82 83 82 79 84 81 84 87 110 111 211 215 203 179 172 157 89 101 80 82 79 82 80 73 71 80 75 77 75 66 60 59 62 59 57 55 56 56 56 56 57 59 88 79 78 78 75 75 76 77 78 78 77 72 67 66 68 69 68 69 72 75 74 71 73 78 81 76 70 71 75 76 78 80 65 65 72 71 74 82 78 75 75 69 71 67 72 78 69 70 66 64 68 71 79 76 71 74 71 70 67 63 62 68 68 68 66 69 70 73 75 84 83 91 91 95 92 91 88 85 82 76 73 71 62 63 56 56 58 58 59 59 59 60 59 59 59 60 63 64 62 63 64 62 59 55 62 62 59 66 68 66 67 68 65 68 69 64 62 66 63 57 56 57 60 61 63 66 67 71
53 58 53 61 59 64 67 74 77 81 85 84 87 82 91 88 74 71 69 69 68 67 64 66 65 63 64 59 61 64 65 68 95 89 90 86 85 87 89 88 86 86 87 87 85 83 80 78 78 79 80 80 81 81 82 84 83 78 79 85 98 106 134 136 210 213 205 178 173 159 87 99 85 85 82 83 79 74 66 75 70 71 67 64 58 60 65 61 61 58 56 57 57 57 55 53 82 79 78 78 79 74 76 77 75 75 74 70 69 71 73 73 71 69 72 71 69 66 66 78 78 75 73 74 77 79 77 77 65 66 72 72 76 84 81 77 78 75 76 70 73 76 79 80 75 73 76 85 83 72 66 73 70 69 67 65 64 68 68 68 57 56 57 61 62 68 67 73 72 87 91 105 113 115 117 108 100 98 79 77 66 64 63 62 61 61 61 61 60 59 58 57 68 68 65 66 67 66 65 57 65 65 65 73 79 77 80 81 77 79 78 73 73 70 67 61 59 63 68 66 67 68 68 68
54 61 50 60 64 69 65 69 73 87 88 109 112 110 118 118 99 93 88 82 69 61 59 62 60 61 58 56 58 59 58 63 89 81 85 86 85 87 92 89 86 86 86 87 86 83 79 77 75 78 80 79 80 83 84 84 83 82 74 83 96 104 133 134 211 208 198 167 164 151 85 96 90 90 92 90 94 97 86 97 99 96 89 86 73 75 74 64 66 65 59 60 58 59 64 65 74 73 72 73 75 73 75 75 74 72 73 72 73 76 76 75 75 75 75 74 72 67 62 65 74 72 72 75 79 81 76 73 64 67 72 75 82 90 86 83 84 76 66 62 66 70 75 76 72 69 70 65 69 71 62 67 69 69 69 69 69 68 68 68 53 54 54 56 56 62 62 67 67 86 90 111 122 127 131 118 110 109 83 82 68 69 64 64 61 62 62 62 61 59 58 56 69 68 69 68 67 67 66 63 69 71 72 83 88 89 95 98 96 96 92 85 82 73 72 72 72 69 70 71 72 75 77 77
58 70 58 65 66 71 70 69 73 98 95 118 123 124 133 136 115 112 104 94 83 73 72 73 70 72 63 64 68 67 67 72 92 83 84 87 86 88 93 89 86 84 85 87 87 84 80 77 76 82 85 83 84 88 86 82 82 86 82 92 102 106 133 129 209 202 202 160 158 139 88 86 92 86 89 87 104 114 108 120 130 128 119 112 79 85 85 64 69 59 60 60 62 55 63 68 69 68 69 71 73 71 72 73 71 74 81 77 70 72 70 71 75 75 69 60 58 60 62 65 70 69 70 75 80 82 74 69 63 68 73 77 87 97 91 88 91 85 73 76 87 97 111 112 112 108 109 102 95 84 64 67 70 70 70 71 71 68 68 68 52 53 54 58 58 59 59 64 64 86 93 118 133 149 155 149 146 142 113 111 84 83 67 66 60 58 59 59 59 58 59 58 70 69 69 69 70 70 70 58 61 65 65 77 87 86 90 93 91 92 87 79 74 71 76 64 59 61 68 74 76 76 78 78
66 67 63 67 64 73 72 69 78 117 115 158 163 168 177 186 172 172 154 141 120 93 92 91 84 88 76 82 89 88 87 93 81 80 81 81 84 96 110 106 105 106 92 87 81 73 80 71 77 95 97 103 116 133 114 106 103 101 106 118 142 142 146 146 208 198 194 147 145 132 90 88 102 98 101 103 117 129 124 122 129 128 124 114 79 87 89 67 73 63 61 62 67 61 68 71 69 68 68 70 72 68 70 71 69 68 79 81 89 106 105 103 108 105 91 76 68 66 66 65 68 67 69 74 79 81 73 68 62 69 73 79 93 103 96 94 98 93 80 88 105 117 134 139 140 138 140 124 112 98 71 72 72 72 72 71 71 68 68 68 51 51 54 58 58 57 57 64 65 88 94 125 142 160 174 167 164 162 128 126 92 90 69 67 59 58 58 57 58 58 58 58 75 75 72 74 78 81 84 88 88 96 95 111 119 119 126 134 135 136 133 129 125 128 114 108 89 93 81 81 80 73 70 68
70 66 59 63 62 66 64 59 74 123 117 160 170 179 183 180 178 166 150 137 118 89 98 97 89 91 76 84 81 86 84 90 85 84 84 83 85 92 102 102 101 102 92 90 88 78 79 74 78 94 93 104 118 134 112 106 112 108 104 113 135 136 136 138 202 189 182 129 131 118 93 91 116 114 139 152 172 187 188 190 197 192 182 171 133 134 123 88 85 72 70 74 83 79 83 87 68 65 64 65 66 66 68 68 67 64 76 81 100 132 137 136 138 131 107 89 75 67 67 66 68 66 67 71 76 77 71 70 64 70 73 78 93 106 98 92 94 93 87 81 109 109 139 142 140 134 144 119 107 95 71 76 66 74 73 78 72 68 68 63 54 55 55 56 55 55 55 63 64 90 97 129 146 166 180 177 177 175 146 142 102 98 71 68 57 54 56 57 58 61 61 59 77 76 80 82 84 88 90 95 93 106 105 124 136 136 144 155 158 155 152 149 143 152 129 125 83 99 80 82 80 67 61 62
61 62 56 62 64 69 66 63 81 134 131 172 180 187 189 195 208 206 200 189 179 156 160 143 124 119 95 94 84 84 82 87 89 88 86 85 87 89 91 92 92 91 89 89 90 90 101 112 117 149 151 150 161 177 146 134 134 123 124 135 150 143 125 117 201 185 178 121 127 112 101 89 119 115 134 153 167 180 182 188 199 196 186 171 130 134 126 88 84 75 74 79 88 81 85 89 69 64 62 63 65 65 65 65 65 64 68 85 93 144 135 132 144 143 99 93 77 67 67 67 64 65 65 68 75 75 73 69 64 70 73 77 90 100 96 96 99 102 106 106 138 145 167 171 171 165 174 149 133 112 82 86 68 75 76 81 77 76 75 69 59 58 56 53 53 54 53 63 65 93 102 135 152 175 188 190 194 191 162 157 112 108 73 67 54 52 56 58 60 64 62 60 71 87 92 93 95 96 98 98 99 123 126 149 162 164 171 179 179 180 181 179 181 187 172 164 109 110 80 75 71 68 67 56
56 59 54 61 65 71 68 68 86 140 140 183 187 192 193 193 200 203 203 197 189 167 173 155 130 126 100 93 82 85 82 82 89 85 86 87 90 86 81 86 88 85 91 91 94 98 107 131 131 171 175 171 177 188 159 146 142 133 134 141 147 139 108 103 185 165 153 89 98 92 96 84 129 129 163 185 193 201 203 203 205 203 201 196 157 161 151 106 101 94 91 87 87 78 81 81 69 64 62 63 65 65 65 65 65 63 68 92 111 169 167 174 193 190 140 131 106 87 78 70 73 73 69 69 74 75 73 69 65 70 72 76 88 91 95 101 101 109 132 135 170 182 200 205 207 200 209 190 171 136 93 93 84 86 86 85 83 82 82 75 55 54 53 50 51 53 52 66 68 94 101 133 149 172 184 188 193 190 165 162 115 113 75 71 55 52 55 56 58 62 61 59 74 88 107 108 110 112 114 110 110 138 141 164 180 181 187 194 194 200 202 197 193 195 179 172 112 109 73 68 67 63 65 54
64 61 54 60 62 67 66 68 82 134 135 180 183 188 191 197 206 203 198 194 187 164 171 152 126 124 101 94 83 86 83 80 89 82 86 87 91 86 78 88 91 87 96 95 98 113 136 177 177 196 190 191 188 191 172 162 157 155 154 150 142 132 99 92 182 169 136 92 98 92 89 88 131 128 169 193 201 207 213 204 212 209 201 202 169 176 158 114 112 96 92 86 87 80 77 75 69 64 62 63 65 65 65 65 65 66 73 93 107 164 163 169 191 185 134 131 103 84 80 73 72 73 70 69 73 75 73 69 67 71 72 75 87 85 95 104 102 111 145 147 177 189 203 208 209 201 208 185 173 146 104 104 84 83 85 82 84 81 84 78 51 50 50 47 49 53 53 70 73 95 103 131 147 169 182 187 192 190 169 168 120 119 78 74 57 53 54 54 57 60 60 59 81 95 97 96 96 96 95 93 94 131 136 163 184 185 191 197 197 196 201 199 194 195 175 166 107 104 68 62 61 58 62 56
75 66 57 60 58 60 62 66 80 131 135 172 177 185 191 198 205 201 192 181 166 141 145 128 107 105 85 87 82 89 85 81 87 88 85 84 89 77 81 80 88 78 92 94 102 123 144 190 185 207 209 198 190 184 168 155 159 161 157 153 128 119 87 83 175 164 137 92 89 88 87 87 128 124 166 192 204 211 215 208 216 213 206 203 167 171 151 108 105 91 89 87 90 84 81 77 69 64 62 63 65 65 65 65 65 62 66 86 105 166 162 164 189 181 135 140 109 86 81 71 65 68 69 69 73 75 73 69 67 71 72 75 84 78 93 108 106 120 165 167 194 207 208 213 213 203 208 193 188 164 118 116 83 80 83 77 82 83 86 82 52 49 49 47 49 54 55 70 74 96 105 132 149 171 184 189 193 192 170 168 121 120 78 74 57 52 54 55 58 59 60 59 86 101 106 102 97 92 87 78 81 130 137 168 193 194 201 208 209 212 214 208 199 198 174 153 88 88 60 59 59 54 60 59
73 63 61 59 59 61 60 62 92 129 135 166 171 172 191 198 194 210 196 174 170 140 141 123 107 93 83 82 82 84 86 85 89 89 90 82 84 74 81 78 84 75 87 93 103 126 140 186 188 204 210 205 197 191 175 163 167 159 166 155 125 118 85 76 157 132 110 78 80 85 90 89 123 117 144 168 189 199 200 192 200 196 189 189 156 161 147 111 106 86 82 78 79 72 68 63 69 64 62 63 65 65 65 65 65 65 68 83 92 148 145 156 192 187 140 144 109 87 83 73 66 70 71 70 73 75 73 69 71 72 78 79 80 80 92 108 106 117 166 165 200 203 210 210 209 200 208 196 193 158 116 120 77 68 77 69 74 83 82 80 54 53 53 51 52 53 52 61 63 78 83 105 115 141 158 168 180 179 164 162 118 116 81 76 62 59 61 60 61 60 59 55 87 98 107 103 97 90 84 79 80 134 139 171 191 193 202 212 213 212 212 207 205 208 176 155 88 84 58 61 61 54 60 60
67 60 59 58 59 61 62 62 80 108 116 157 164 166 183 188 175 184 164 138 136 113 118 107 96 90 85 81 77 75 76 76 95 95 95 90 92 78 81 80 84 76 88 98 110 141 152 198 200 198 201 195 180 172 163 156 160 146 149 135 105 105 77 70 153 126 110 79 69 82 91 88 115 108 150 168 193 207 208 205 211 206 197 196 162 164 149 114 114 96 88 77 74 67 64 60 70 65 65 63 60 62 63 64 64 67 66 76 85 128 130 141 178 167 140 136 108 80 83 67 65 66 69 72 73 75 72 68 69 72 84 88 85 86 96 104 104 116 161 161 198 202 209 207 204 195 201 190 185 153 110 110 77 69 72 59 61 62 64 66 53 54 54 52 52 52 51 60 62 74 79 99 112 136 151 162 175 173 163 160 119 114 80 76 64 61 63 62 62 60 60 55 87 93 103 100 92 81 78 77 75 127 121 174 185 185 196 205 208 209 214 203 198 198 157 153 81 89 63 61 61 58 56 59
61 60 62 62 64 64 67 68 71 85 95 136 149 157 174 179 156 153 129 104 97 77 87 82 82 80 78 74 71 69 69 68 100 100 99 96 99 83 85 71 73 68 83 103 116 158 171 206 209 195 196 191 168 156 159 159 154 136 134 121 83 84 71 71 138 107 97 77 73 75 86 81 104 94 125 135 161 180 181 182 186 179 168 165 129 132 121 90 90 72 69 64 65 61 60 57 70 66 67 64 60 59 59 60 61 62 67 68 67 80 86 105 143 138 124 124 100 78 80 66 61 62 65 68 69 71 70 68 72 74 88 91 86 91 97 98 100 119 163 161 199 202 210 208 209 204 210 198 188 160 115 114 74 71 71 61 61 64 65 66 54 52 52 51 52 54 54 58 59 63 65 79 84 111 125 139 154 152 143 141 102 99 68 64 58 58 62 62 61 59 58 52 90 84 77 75 67 58 55 51 49 88 80 128 152 155 179 197 196 189 186 158 158 155 115 111 54 72 58 57 60 59 60 61
66 69 70 71 71 70 73 74 76 81 85 125 133 136 143 151 131 127 109 91 91 79 85 77 79 76 76 73 72 72 72 70 98 98 99 91 94 83 90 72 74 72 87 107 116 160 172 197 195 177 181 182 161 150 160 162 148 128 129 119 78 77 72 74 120 91 82 65 67 73 86 79 95 81 103 113 135 157 160 165 175 164 149 134 109 102 95 74 71 63 53 56 57 53 53 53 70 67 68 64 59 58 58 59 62 60 64 61 70 73 87 108 140 138 134 132 103 74 71 65 58 59 62 64 66 68 67 68 75 75 90 90 82 82 85 85 85 93 122 118 158 160 182 179 184 184 189 165 149 124 81 82 69 72 72 66 67 67 66 65 54 51 52 51 52 55 55 57 58 60 61 69 76 99 115 132 149 148 140 136 96 91 65 59 58 58 62 63 62 58 58 53 87 75 73 72 67 59 58 59 58 83 81 118 146 144 172 189 178 182 185 150 147 130 105 100 68 77 62 61 62 59 59 60
74 78 79 80 77 75 78 78 80 78 73 109 113 112 113 115 91 89 78 70 77 68 74 65 70 65 65 66 69 73 74 71 94 94 93 90 90 92 95 87 84 80 92 107 122 158 163 174 169 156 147 158 142 141 158 162 144 112 112 102 70 72 77 81 114 87 79 66 69 74 81 82 88 83 101 107 124 142 143 152 157 147 135 126 102 89 83 71 68 62 59 57 57 56 56 56 67 66 67 63 57 59 58 60 63 68 71 60 63 60 63 63 80 73 67 75 79 70 71 64 58 59 62 65 66 66 67 67 74 74 91 92 85 82 83 85 82 91 121 120 164 170 192 187 192 191 194 170 148 124 84 90 65 71 70 65 65 66 65 65 53 49 50 49 51 55 56 57 57 55 54 57 58 73 83 95 107 105 99 98 71 71 57 56 58 59 60 61 60 59 60 57 69 63 61 61 58 52 54 54 49 61 62 77 86 80 103 116 106 94 90 61 68 66 61 74 75 83 69 66 65 59 56 57
75 78 83 80 83 78 81 78 75 78 81 104 114 111 109 112 95 85 82 73 75 72 74 65 61 62 64 67 70 70 69 72 95 93 95 91 90 93 95 90 89 86 93 102 120 149 155 161 157 152 143 148 143 150 156 158 148 112 113 100 67 72 77 77 102 77 69 62 66 69 69 72 67 68 75 74 83 93 90 98 101 96 90 85 67 61 60 53 56 60 62 56 57 58 57 57 65 65 66 61 54 55 53 55 60 68 67 64 62 57 62 65 75 74 70 69 73 68 68 63 60 61 64 66 68 66 67 67 78 75 87 91 87 82 82 85 85 93 121 115 161 162 190 184 183 180 191 167 143 122 86 87 66 73 68 69 67 67 67 67 53 51 49 49 50 55 55 57 59 54 54 55 57 72 80 94 104 105 98 96 70 68 58 57 58 59 59 60 60 59 58 58 68 60 59 60 57 53 55 60 54 66 71 70 87 82 102 117 113 97 91 68 64 65 66 75 85 86 70 66 65 59 56 57
63 73 74 71 75 74 70 69 70 76 80 92 100 98 97 99 86 80 76 65 69 70 69 66 68 66 67 72 71 68 69 76 103 100 97 93 91 92 95 102 107 105 99 97 112 123 125 128 129 134 131 141 145 157 144 132 128 105 114 99 70 75 76 72 102 80 71 69 72 71 70 69 65 65 90 90 100 111 108 105 105 99 90 84 73 72 68 55 55 57 59 56 57 58 57 57 68 66 69 60 57 55 56 59 62 66 68 65 62 60 58 66 74 78 84 68 70 67 64 63 67 67 67 67 67 65 63 60 75 74 83 84 79 75 75 77 76 81 101 92 124 120 141 138 140 139 150 133 108 95 69 75 74 79 72 73 70 67 67 67 55 52 52 53 55 60 60 60 61 54 51 50 48 60 65 76 86 86 83 83 62 62 55 54 56 56 57 58 57 56 56 58 59 55 61 57 57 60 57 62 61 60 59 59 68 64 62 68 73 61 64 65 62 59 62 63 73 75 68 65 63 62 60 57
57 59 57 57 60 63 59 60 63 69 72 73 75 70 67 69 66 67 66 58 60 59 59 68 78 85 92 92 83 75 75 80 101 98 98 93 91 92 94 93 100 101 94 90 111 118 125 124 127 133 134 144 147 162 155 143 134 108 112 101 75 79 75 75 101 79 70 70 72 66 69 66 72 70 78 77 87 98 95 95 97 94 84 75 65 65 62 53 55 54 53 55 57 57 56 56 74 74 75 65 63 61 61 64 67 70 71 68 63 60 58 63 62 64 69 61 67 66 67 69 70 69 67 67 66 64 63 61 81 81 86 84 81 76 77 79 77 76 87 84 112 112 130 131 135 135 146 124 98 89 71 75 79 80 74 76 71 67 67 67 57 53 53 55 56 61 61 60 61 54 50 48 46 56 62 72 81 82 78 79 61 60 54 53 55 57 57 57 56 56 57 57 56 54 57 54 56 60 59 61 61 60 59 58 57 56 56 58 60 55 58 61 60 59 59 63 73 73 67 67 64 62 59 58
59 58 57 59 58 63 62 62 63 65 67 69 71 70 70 71 72 71 66 59 62 61 59 69 79 82 88 88 79 73 72 77 104 99 103 96 92 97 98 102 106 109 109 110 116 110 116 126 131 140 137 140 133 137 126 114 116 104 112 96 78 80 75 72 98 72 72 77 67 62 62 64 68 71 76 73 74 86 77 78 74 76 67 64 56 56 56 51 53 56 58 58 57 57 58 58 75 78 79 69 67 69 66 69 71 72 73 69 63 60 58 61 57 60 63 62 64 65 68 73 71 70 68 66 64 63 63 62 75 72 71 71 71 69 70 74 75 77 85 84 97 96 104 110 113 114 122 102 79 79 69 68 76 74 70 75 70 67 67 67 56 53 54 57 59 64 64 62 62 55 51 49 48 58 65 71 77 77 72 73 58 56 54 53 57 59 59 59 58 55 55 54 58 59 55 53 55 61 61 60 60 59 58 57 56 57 58 57 56 55 58 60 62 62 60 66 74 74 71 71 68 65 62 57
79 75 75 81 77 80 76 75 73 69 68 67 66 67 66 67 71 71 66 64 67 66 65 78 87 87 91 87 74 71 74 81 104 104 99 91 88 98 100 108 114 117 116 113 109 100 106 120 126 150 154 152 131 125 111 97 108 103 121 101 80 77 72 69 92 71 71 77 70 64 64 65 69 72 77 75 74 83 76 72 75 79 67 64 61 58 56 51 54 57 55 55 56 57 58 57 75 85 86 76 78 77 70 74 75 70 70 67 63 60 58 62 58 61 60 65 63 63 66 70 66 66 65 64 64 62 63 63 75 69 64 67 69 68 71 76 78 76 76 74 80 77 89 96 101 101 107 96 74 79 70 64 72 69 66 73 68 67 67 67 55 54 56 59 62 68 69 65 65 57 52 51 47 58 66 69 74 74 69 69 56 54 54 55 58 61 61 61 59 54 54 51 52 56 56 55 57 62 63 60 59 58 57 57 54 55 54 53 52 52 52 53 53 53 51 56 62 64 64 64 61 59 56 53
89 76 83 87 75 77 80 76 72 66 69 66 59 64 70 63 66 69 69 66 65 65 67 75 84 85 85 80 72 70 73 78 103 105 101 95 94 102 105 107 115 120 117 115 113 108 116 132 137 138 140 141 119 112 102 88 102 106 113 97 80 76 73 71 74 62 58 67 62 65 65 66 71 73 76 75 72 76 71 70 66 67 58 54 53 53 56 60 60 58 55 54 56 57 57 56 78 90 92 84 87 80 71 76 76 68 67 65 62 61 58 64 59 60 54 64 62 62 63 66 63 64 64 64 64 62 63 64 73 70 67 67 68 72 77 77 75 76 82 78 86 87 99 98 101 99 100 87 75 73 69 69 70 70 70 68 66 65 65 65 55 55 57 59 61 67 68 64 64 56 52 51 49 61 69 71 76 76 70 69 57 54 55 55 58 61 62 61 60 54 54 52 53 58 60 57 59 64 63 59 58 57 57 56 59 57 55 55 56 56 55 52 49 48 50 51 54 60 62 60 58 57 55 54
132 100 79 79 66 76 67 71 69 61 67 60 55 61 71 68 68 66 66 68 66 62 61 64 69 67 65 65 61 62 64 68 112 117 112 106 105 107 111 111 119 123 120 120 124 130 144 155 155 127 120 121 106 91 84 76 89 92 96 87 79 79 79 76 73 69 61 69 67 67 67 68 72 75 80 81 75 72 71 70 62 63 58 55 55 52 51 57 59 60 59 57 56 56 56 55 80 97 94 88 88 78 69 72 71 65 65 63 61 61 62 61 60 60 61 61 62 64 63 61 61 62 64 63 61 61 62 64 72 69 68 68 70 75 77 77 75 73 76 73 82 86 100 100 97 92 89 77 67 69 68 70 68 69 69 67 66 64 65 66 59 60 61 65 67 71 70 65 64 55 53 57 58 70 78 80 81 80 67 65 55 55 59 61 63 63 61 59 58 53 51 49 52 60 61 59 60 64 62 59 59 58 57 56 58 56 55 57 58 58 56 54 54 55 57 57 58 58 58 57 55 54 54 55
143 96 69 70 53 67 58 67 72 58 59 64 58 60 69 67 67 69 69 68 65 62 60 60 61 59 59 59 55 56 59 63 109 112 111 107 107 105 111 118 120 122 121 121 124 132 145 153 154 126 127 123 105 87 87 82 92 91 92 88 82 80 81 75 73 73 62 70 69 68 68 69 74 76 72 74 67 60 61 59 60 66 60 58 62 58 56 65 63 62 63 60 57 55 55 55 76 99 102 93 87 75 62 61 63 63 64 62 59 60 60 59 58 58 60 62 64 65 65 63 62 64 65 64 63 60 62 65 71 69 68 69 72 75 76 75 74 75 77 72 80 84 99 103 99 96 90 78 67 67 65 65 67 69 70 68 68 65 66 67 59 60 61 63 64 66 66 64 64 57 55 57 58 68 75 76 78 78 65 65 56 55 58 59 60 60 60 60 59 55 54 53 50 57 67 63 64 67 66 61 60 59 59 58 59 58 58 58 60 60 59 58 58 59 58 58 58 57 56 54 52 51 52 54
206 173 161 137 98 106 90 81 84 73 72 74 73 70 74 67 66 68 68 63 61 63 62 62 61 61 63 63 59 59 63 66 116 115 111 109 111 114 114 113 111 110 111 112 112 115 123 129 134 109 107 105 91 78 76 72 77 77 76 77 79 81 82 83 73 70 66 66 69 68 68 70 71 72 67 70 65 58 56 60 59 59 58 57 57 58 59 61 61 61 62 60 58 57 57 56 71 87 91 88 86 75 63 61 62 65 65 62 62 63 64 63 61 61 61 63 64 66 65 64 64 65 67 66 64 61 63 67 70 68 68 70 71 72 73 73 74 74 77 73 84 91 95 103 97 96 88 82 71 69 66 66 68 70 71 71 71 69 68 67 59 58 57 58 58 60 60 60 61 57 57 57 58 65 69 69 70 70 62 62 55 54 56 56 57 56 58 58 57 59 59 58 54 61 68 63 62 66 65 62 61 60 60 59 60 60 60 60 60 62 62 62 62 62 58 58 57 56 56 56 55 55 57 59
224 199 201 163 120 129 105 75 71 69 74 77 81 79 80 72 69 65 62 60 60 61 62 62 62 61 64 65 63 65 67 67 115 115 112 110 112 121 115 114 112 112 112 116 122 126 133 137 133 103 97 99 84 77 74 73 74 73 76 78 83 84 85 79 76 73 68 66 67 66 66 66 66 66 63 66 61 57 57 57 58 59 60 61 62 61 59 58 55 54 55 55 53 52 51 51 61 68 73 74 74 69 63 62 62 65 66 66 68 71 74 73 69 66 65 64 63 64 64 62 65 67 68 67 66 64 66 68 70 68 68 71 70 69 70 72 74 73 75 74 88 100 104 112 103 102 92 82 71 71 69 70 69 72 73 73 73 71 69 67 59 58 57 58 57 60 60 60 61 57 57 56 58 62 66 66 68 68 60 60 54 54 55 54 56 58 59 60 60 61 60 60 61 61 71 65 62 65 65 60 60 59 58 57 59 60 61 60 58 61 63 64 64 64 60 58 57 55 53 52 52 54 58 64
59 57 61 67 68 92 97 100 91 93 99 96 80 63 61 56 50 42 51 49 67 78 71 76 76 71 69 69 69 69 64 60 103 101 98 92 77 63 60 57 60 60 60 60 61 61 59 54 51 49 48 50 51 50 48 47 47 48 51 52 50 49 50 50 55 51 58 69 69 75 80 73 73 71 59 51 51 51 52 53 54 52 50 49 50 51 51 50 49 50 52 54 53 51 49 48 47 43 40 34 40 46 52 54 55 58 61 63 63 58 57 55 52 50 57 64 58 75 91 90 81 78 76 69 66 67 65 62 52 53 52 58 60 62 67 68 68 70 67 64 62 61 62 60 55 50 47 49 56 62 62 63 61 59 61 60 59 60 61 62 44 48 51 54 58 62 61 60 56 56 56 55 53 53 52 55 57 57 58 57 59 64 82 96 109 111 84 73 54 47 49 49 59 59 59 60 60 62 64 65 68 69 65 61 63 66 66 66 66 66 66 65 68 68 66 68 67 67 67 66 69 72 72 76
60 56 56 57 55 63 65 69 61 68 68 70 66 58 52 50 52 49 69 71 79 85 87 78 65 62 60 59 61 59 56 56 114 111 108 101 88 72 65 57 56 55 56 57 59 60 58 54 53 53 53 53 53 49 47 48 48 51 54 55 53 50 49 49 54 50 55 67 69 75 81 75 79 78 64 56 52 50 52 54 53 51 50 48 49 51 52 49 48 50 53 53 52 50 48 47 48 44 40 39 43 49 53 54 55 57 60 61 61 59 58 57 53 51 56 67 61 79 88 85 78 76 74 71 69 67 65 64 59 56 52 57 61 62 61 60 60 60 60 60 61 62 61 59 56 53 51 51 54 58 58 59 60 61 62 62 61 60 60 59 47 48 50 52 55 57 56 55 55 58 61 62 57 57 56 58 58 58 58 59 60 63 76 90 103 111 95 86 67 55 52 50 60 60 60 61 61 61 61 61 61 62 63 64 64 69 68 67 66 65 66 65 63 62 61 61 61 57 54 54 55 56 58 58
63 57 56 55 50 46 45 51 45 47 53 62 60 55 54 54 56 51 74 84 93 89 93 73 61 59 56 54 51 52 52 52 113 110 108 102 93 77 70 57 54 53 53 56 57 58 58 55 55 56 56 55 55 50 47 49 49 54 56 56 55 50 48 48 54 49 55 65 67 76 83 76 84 82 63 55 57 52 50 52 50 51 50 49 50 51 53 50 48 51 54 54 53 51 48 47 42 37 38 38 42 42 43 48 50 53 56 58 58 56 53 51 50 49 55 61 61 73 78 76 72 73 71 68 67 65 62 61 62 57 53 58 61 60 57 55 56 56 57 58 61 62 61 59 56 55 55 55 55 55 55 57 59 61 63 63 62 61 60 58 51 49 49 51 52 51 50 48 54 63 69 77 71 68 64 62 60 61 63 64 65 65 70 81 93 104 106 99 86 70 59 54 60 60 60 61 61 61 61 61 60 61 61 62 63 66 66 67 67 68 67 66 66 66 66 65 62 59 58 58 59 59 60 60
55 55 54 48 42 48 48 53 50 54 55 60 59 54 50 46 51 51 75 84 95 91 93 69 59 61 60 57 55 56 56 55 90 87 88 93 101 94 87 64 55 50 50 53 54 55 56 55 58 61 63 60 59 55 52 54 55 57 57 56 54 50 47 47 52 48 56 62 64 78 84 75 87 87 76 71 64 56 51 53 53 52 50 49 51 50 52 50 49 50 52 55 53 51 47 46 38 36 38 37 41 40 39 42 44 47 49 51 52 52 51 50 48 48 52 57 57 64 68 66 62 62 61 58 58 58 60 61 64 57 54 58 59 57 56 56 57 59 60 60 61 62 61 59 56 57 59 58 57 54 55 58 62 65 67 66 65 65 64 67 54 50 49 50 49 46 44 43 56 74 85 103 98 89 79 68 67 68 71 70 68 66 68 72 79 89 103 106 106 91 71 63 60 61 62 62 62 62 62 62 59 60 60 62 62 62 63 65 67 68 66 67 68 68 68 66 62 60 62 62 62 61 61 62
90 96 92 80 75 57 54 57 51 54 57 65 73 78 87 99 112 114 137 138 132 124 118 82 69 68 63 58 53 54 55 58 67 66 69 80 101 106 100 75 61 52 51 54 55 55 53 55 59 63 66 65 66 63 61 61 61 59 57 56 52 48 46 47 48 46 53 58 59 72 77 70 83 79 71 63 61 55 52 55 54 52 46 47 50 48 50 49 49 49 50 50 49 47 45 44 41 40 44 42 46 44 40 40 43 45 47 50 52 54 55 56 54 53 55 59 59 60 67 68 64 61 61 62 62 62 62 63 76 69 55 58 58 55 53 53 54 57 58 59 61 62 61 59 57 60 62 62 57 55 57 61 66 70 73 72 71 71 70 73 58 55 54 54 52 49 47 46 62 88 104 134 136 123 109 82 71 71 74 73 71 68 66 65 66 71 84 90 97 97 83 78 63 64 65 63 63 63 63 63 60 61 61 62 63 60 62 64 65 67 64 66 69 70 69 66 64 63 63 64 64 63 62 62
90 98 89 74 74 61 55 54 46 49 55 61 73 82 80 92 121 127 149 152 125 116 117 71 69 71 66 59 53 53 55 60 67 64 67 76 99 106 103 80 65 56 52 53 54 55 56 55 58 61 64 66 67 66 64 63 60 57 55 54 52 49 49 49 47 45 50 56 55 63 68 64 84 86 91 90 74 69 67 64 57 51 43 44 49 45 49 49 49 49 49 51 50 50 50 50 46 45 51 47 52 49 44 43 46 47 48 52 55 57 61 64 62 61 59 64 65 62 66 66 67 70 75 75 71 69 67 66 67 55 50 60 58 52 47 47 55 57 53 57 66 62 53 55 61 62 61 58 56 57 65 65 60 72 75 75 74 74 74 67 57 55 54 54 53 49 48 48 64 93 112 147 153 139 122 89 76 75 76 76 73 69 65 63 63 68 77 82 91 94 87 82 65 67 68 63 63 63 63 63 61 62 63 64 64 60 61 63 64 64 62 65 68 70 67 63 65 64 62 62 64 62 61 60
102 110 98 83 86 70 64 64 58 62 67 71 86 98 96 113 153 151 164 171 127 117 124 69 69 68 64 61 57 57 58 61 70 65 68 76 99 106 104 84 68 57 53 52 54 56 57 57 59 60 63 65 67 68 66 63 59 54 52 51 50 49 49 50 46 47 49 52 54 61 66 65 82 77 88 91 69 71 69 62 51 52 42 51 52 48 49 50 51 48 50 50 50 50 52 54 45 44 50 46 51 50 44 43 46 45 46 51 54 56 62 65 64 62 58 64 66 62 67 68 68 66 69 72 71 71 69 68 75 66 55 63 60 54 52 53 59 61 58 58 62 61 57 61 67 67 67 67 67 67 76 80 79 94 94 94 95 96 96 102 48 47 48 50 53 51 50 51 66 98 116 164 179 165 149 112 95 92 94 91 84 75 68 68 68 68 70 70 72 74 79 80 66 69 70 67 65 62 61 62 62 64 65 64 63 65 63 59 61 66 62 62 64 76 72 61 62 62 56 58 60 60 60 60
108 113 106 92 92 81 77 76 74 71 77 79 89 110 117 136 183 181 192 189 137 126 119 63 59 57 59 68 67 63 63 63 100 96 97 99 110 110 105 86 72 61 55 52 54 60 64 63 59 57 57 60 63 64 60 56 51 48 48 48 48 48 51 51 47 52 52 51 51 55 54 54 69 62 81 91 92 100 97 86 72 69 56 59 56 51 55 52 55 50 54 49 48 48 50 52 52 50 53 49 53 53 50 46 48 48 54 63 67 61 66 70 72 73 74 84 78 80 79 80 60 70 68 62 63 62 65 69 79 69 64 67 62 57 55 53 56 57 56 59 66 65 60 65 69 72 75 78 81 87 99 105 108 126 131 135 144 150 155 154 46 45 46 50 52 50 51 53 68 95 112 154 175 166 155 126 117 116 118 109 98 84 73 72 68 64 62 62 60 60 62 65 63 66 67 67 65 62 61 62 62 65 66 66 65 66 65 62 64 70 82 83 82 86 77 64 64 64 58 59 60 60 60 60
83 90 85 74 73 71 68 73 76 73 89 96 103 117 117 135 181 179 191 193 146 136 134 87 81 69 66 73 74 73 71 68 123 119 120 121 122 114 109 90 75 63 57 54 59 67 73 72 68 63 61 62 64 63 57 52 47 46 48 48 50 50 52 53 50 54 53 51 50 50 46 49 66 58 77 84 91 104 98 88 72 68 56 53 56 58 59 54 56 52 54 49 48 48 49 50 64 60 60 55 57 59 60 57 56 60 64 77 86 99 105 110 112 112 114 126 129 122 106 100 72 71 63 56 57 58 61 65 83 72 64 64 57 53 57 59 60 60 60 61 64 64 60 65 71 76 79 83 86 93 103 108 108 124 126 129 137 143 146 149 51 49 50 52 53 53 54 57 65 83 96 130 151 149 144 126 120 121 125 121 112 98 80 73 66 63 62 62 62 61 61 63 61 63 64 67 65 62 61 62 63 65 68 68 68 66 67 66 70 77 86 90 89 92 79 67 65 64 59 59 59 59 59 59
65 71 69 61 59 60 60 69 77 73 92 111 117 132 127 143 187 184 195 196 148 139 142 105 106 91 80 80 77 75 72 67 135 129 129 130 127 114 108 90 77 65 60 59 66 77 85 86 81 76 71 71 70 64 56 51 46 47 49 51 53 53 56 57 51 53 52 52 53 54 50 49 62 56 80 88 122 143 138 131 116 114 90 77 63 65 63 53 56 51 52 48 49 49 47 47 68 63 59 59 56 56 57 54 60 72 75 93 104 100 107 112 115 117 123 125 136 122 102 101 72 72 68 62 63 64 67 68 111 102 102 100 91 88 85 79 78 78 79 84 92 98 104 113 122 126 128 130 133 142 150 151 148 160 166 164 158 155 152 145 55 53 53 53 55 56 57 60 65 76 84 112 134 136 137 127 123 125 131 130 122 109 84 75 65 61 62 62 62 61 60 60 62 65 66 67 65 62 61 62 63 66 69 71 71 71 69 65 67 72 92 94 94 97 84 68 64 62 57 58 58 58 58 58
63 67 67 62 57 58 56 70 79 71 90 112 114 128 122 142 186 184 199 200 151 141 139 101 103 91 81 81 73 74 71 67 132 123 122 121 118 108 101 88 77 66 61 64 75 90 100 105 103 96 89 84 81 69 57 53 48 48 51 53 56 59 63 64 52 51 50 53 55 55 51 47 56 51 78 85 128 155 148 142 127 123 90 89 60 68 65 51 53 50 48 47 49 49 46 43 94 87 77 75 69 73 81 80 92 118 121 141 152 151 159 167 172 174 173 156 168 136 96 95 68 77 81 80 81 81 80 78 117 112 114 109 97 93 97 91 92 90 87 96 104 105 127 125 132 141 140 153 152 151 164 166 163 167 166 165 158 149 140 137 68 67 65 61 60 61 61 62 62 63 64 81 106 113 121 123 126 131 141 141 134 119 95 82 67 59 59 59 60 60 58 57 65 67 68 67 65 62 61 62 64 67 71 73 73 82 84 86 92 100 114 112 110 113 93 68 63 61 57 58 58 58 58 58
59 62 63 57 51 61 59 73 80 70 104 131 134 153 145 159 197 189 198 202 161 157 160 124 125 112 103 97 82 75 73 70 112 96 94 93 94 91 89 82 76 71 71 78 92 108 121 129 129 126 119 110 104 84 64 58 50 49 52 53 57 62 66 69 53 53 54 55 57 51 56 47 52 51 77 86 129 161 149 145 135 123 93 91 62 62 67 51 51 49 51 49 48 50 49 43 95 87 74 77 67 69 76 73 90 124 128 148 156 146 156 164 169 172 168 155 175 134 93 99 71 81 86 86 88 88 85 81 112 109 112 106 96 92 89 77 80 80 77 88 99 99 121 121 129 140 141 150 144 162 165 165 164 166 174 172 165 156 148 140 94 91 86 77 66 62 61 59 58 57 58 68 93 103 114 120 126 130 140 135 125 109 90 81 71 65 62 61 61 59 57 57 62 63 63 61 60 64 58 58 64 57 73 74 73 89 93 114 128 131 154 150 147 128 116 75 80 67 63 65 66 64 62 61
55 58 59 56 52 62 62 63 82 85 114 148 156 178 173 188 197 205 202 209 180 178 182 177 171 141 129 113 84 91 82 75 93 77 76 76 78 79 78 75 75 80 85 100 112 127 141 151 154 153 148 135 127 101 73 65 55 53 53 54 55 59 63 65 53 53 55 56 57 51 56 48 54 51 76 84 135 170 166 171 168 165 133 122 86 83 74 58 58 56 57 52 49 49 45 40 114 100 86 91 84 85 92 93 105 145 142 180 175 191 197 202 203 202 198 180 178 156 113 111 75 82 77 78 77 74 72 73 116 114 121 117 109 106 109 105 112 117 115 124 140 136 160 162 162 165 169 164 144 156 135 133 136 131 131 127 117 110 105 98 131 124 117 103 85 71 67 59 54 53 52 59 84 97 112 121 127 131 138 130 117 98 80 74 68 65 63 63 60 57 56 55 62 63 63 59 60 65 61 64 71 73 97 102 100 118 120 142 155 155 167 165 155 121 108 65 68 66 62 62 65 63 61 60
53 55 56 54 52 70 78 87 109 110 133 168 176 191 184 198 203 206 192 190 172 172 172 179 181 154 143 129 100 102 93 86 82 72 70 72 76 76 75 73 76 88 97 117 130 143 154 165 169 169 166 154 143 112 80 71 60 57 56 56 55 56 59 60 53 55 56 57 56 51 57 50 55 51 74 81 141 174 170 179 180 171 140 125 84 81 71 56 56 52 52 48 45 50 48 48 118 106 94 97 90 92 99 100 114 155 155 199 198 199 208 215 216 216 214 197 191 169 125 118 78 80 73 69 66 66 67 68 127 127 120 117 110 109 115 115 128 137 136 146 169 163 186 191 193 197 200 181 145 150 111 107 112 103 101 95 84 77 73 68 172 164 155 135 112 88 80 62 51 50 50 56 81 96 112 125 130 133 137 127 109 87 65 62 60 62 62 62 59 56 53 52 62 63 63 58 62 65 62 70 81 90 123 136 136 160 163 184 189 181 193 190 175 130 113 68 71 70 65 63 64 62 60 59
65 65 64 61 59 84 99 115 143 147 167 191 194 208 204 211 209 205 180 171 162 165 168 189 196 172 166 155 127 129 117 108 74 75 76 79 81 78 77 74 78 95 107 133 145 156 163 174 179 180 178 168 156 121 85 76 66 64 61 60 57 54 55 56 54 56 57 57 56 52 58 51 54 49 70 75 134 167 166 182 190 177 150 138 96 94 88 73 74 68 66 54 47 52 45 48 122 104 88 95 88 91 99 100 112 150 148 194 195 200 211 217 217 215 206 192 186 164 124 116 76 80 75 72 70 70 69 68 117 117 118 116 110 109 109 104 119 131 130 140 167 159 182 189 186 188 197 176 138 163 112 108 114 103 107 100 88 82 80 70 188 184 180 164 141 111 97 69 53 52 52 58 82 95 111 124 134 140 148 137 117 94 69 65 61 61 61 61 60 57 55 55 62 63 63 60 64 66 62 72 87 92 122 134 134 141 143 171 182 177 189 185 166 116 105 63 69 64 62 62 63 62 60 59
59 58 58 58 58 81 95 112 144 150 160 183 188 202 203 209 206 203 181 174 167 165 165 188 193 170 164 153 124 133 121 110 83 90 93 98 95 89 85 78 83 103 116 144 157 168 172 180 184 186 185 173 161 127 91 82 71 68 63 61 56 55 56 57 55 58 58 58 56 51 59 51 52 45 65 68 125 158 163 188 203 196 170 153 104 101 98 84 84 77 74 62 51 56 45 50 116 102 89 92 85 89 97 99 109 145 144 194 197 201 210 213 209 205 198 189 184 167 130 122 77 73 65 65 66 67 67 66 65 60 66 62 60 56 82 76 95 119 113 122 156 153 184 194 190 201 194 198 154 158 116 102 112 82 80 74 68 63 69 64 189 187 185 179 164 133 117 80 59 58 57 63 82 96 111 129 142 147 152 136 114 92 70 66 60 58 57 57 58 58 58 57 62 63 63 61 66 66 62 73 97 101 128 141 143 141 125 144 155 151 163 159 140 93 87 51 60 55 56 61 63 61 59 58
52 54 57 62 64 84 95 110 141 148 151 183 194 206 206 210 204 202 181 176 170 164 167 192 198 176 169 155 122 131 120 110 93 107 110 113 106 97 92 84 89 107 119 149 163 173 175 181 185 189 187 176 166 133 98 87 74 67 62 60 57 56 56 57 56 57 56 63 63 53 52 55 52 60 62 70 128 152 153 194 204 189 171 157 108 105 104 91 95 73 78 65 59 55 46 48 111 96 84 82 76 79 88 90 100 138 139 194 200 206 213 214 207 201 189 183 181 166 131 122 75 71 63 58 55 58 61 62 69 66 64 61 62 58 88 88 105 130 124 128 154 152 183 192 193 206 199 199 163 157 116 94 106 86 84 76 64 61 62 63 189 187 186 184 175 148 133 96 72 67 65 71 91 105 119 139 150 152 152 133 111 85 66 62 56 55 53 53 56 58 58 58 63 64 65 66 68 69 62 71 91 94 122 133 133 125 123 144 156 152 158 161 127 85 77 55 56 59 56 59 60 59 58 58
77 82 82 94 94 132 145 158 184 183 192 201 196 210 201 199 189 190 171 169 161 158 156 152 152 135 134 118 91 93 86 77 107 122 125 128 115 103 98 91 94 110 122 150 164 175 177 182 186 189 189 178 171 141 106 92 76 64 58 58 54 55 56 58 62 62 60 64 63 53 52 55 51 55 55 58 107 127 129 172 184 184 172 165 124 126 138 127 128 103 105 79 70 62 48 49 92 84 76 75 74 77 84 90 102 129 131 194 193 193 205 208 198 190 185 174 180 161 135 122 84 80 74 54 58 58 62 68 64 62 62 60 67 64 87 84 100 124 121 127 149 151 181 188 190 202 202 203 185 192 169 152 161 132 120 112 90 90 81 71 190 187 188 187 180 161 150 119 92 83 78 82 106 124 142 157 160 158 153 129 104 78 56 54 51 50 50 50 53 56 56 56 66 67 68 66 69 68 61 70 95 99 124 134 137 122 128 145 152 150 156 158 124 80 73 58 55 57 56 59 59 58 57 57
76 80 82 97 99 142 153 166 182 177 191 199 198 211 209 205 189 189 174 173 162 159 164 154 153 142 140 122 95 90 84 76 133 141 139 136 122 108 103 97 100 112 120 140 148 154 155 164 173 180 183 176 171 153 122 105 86 66 56 54 53 55 56 55 63 62 62 62 60 53 52 52 50 52 58 59 101 117 119 171 187 180 173 162 122 125 125 124 122 98 96 80 70 63 51 54 60 59 59 60 60 61 64 67 80 112 116 190 190 190 200 199 186 174 171 151 158 140 128 114 89 90 84 64 66 61 60 63 57 56 53 52 68 64 86 88 102 126 124 130 144 148 179 183 190 199 204 201 200 191 188 174 180 146 141 130 97 101 80 73 181 178 175 167 158 151 147 136 123 117 115 121 145 156 169 176 169 162 147 122 99 75 56 54 51 50 51 52 56 60 62 63 61 63 64 65 67 66 59 67 77 79 98 103 107 82 84 97 108 111 114 125 103 70 66 51 50 55 58 60 58 58 57 56
131 137 142 163 168 159 158 158 163 158 167 178 182 198 203 199 179 180 165 161 147 142 146 133 127 114 114 99 73 82 77 71 148 147 142 134 119 103 98 91 95 104 111 122 127 131 132 142 157 169 176 168 163 148 124 111 94 71 58 56 53 56 58 57 60 58 58 58 55 52 52 51 48 46 50 44 66 75 71 120 135 149 153 151 122 132 135 142 141 119 116 93 80 69 55 58 63 62 63 60 63 66 68 69 87 117 116 192 190 191 203 202 188 175 172 157 164 144 136 122 91 83 75 60 64 60 59 62 57 58 53 53 72 68 88 90 103 127 127 132 142 148 178 181 195 205 206 195 196 198 194 171 180 156 140 128 91 96 71 73 158 151 145 135 127 126 127 134 140 142 145 151 167 174 182 184 174 165 146 118 95 74 59 56 53 51 52 54 57 60 62 62 58 60 61 62 64 62 54 63 77 77 93 95 100 81 77 94 105 103 114 118 95 69 63 50 52 58 59 60 58 57 56 55
122 127 132 155 161 170 164 161 160 152 165 175 180 195 203 196 176 177 161 156 148 144 144 136 133 118 116 101 73 79 72 65 158 149 144 131 114 100 95 89 91 98 103 112 113 114 113 128 146 161 169 161 155 143 126 112 97 74 60 57 53 57 59 60 61 57 56 53 51 51 52 50 47 45 52 44 70 77 75 128 146 145 152 147 119 129 129 140 139 115 110 89 76 67 57 61 54 52 52 53 57 60 61 59 72 104 103 184 181 189 201 199 182 168 158 146 149 136 124 114 91 89 85 68 68 64 64 67 65 65 63 74 78 80 100 105 112 117 117 120 126 133 144 151 155 155 154 154 158 164 164 166 165 155 153 151 130 128 112 105 125 114 109 97 90 94 101 123 152 166 173 177 182 185 189 189 176 165 143 115 94 75 64 60 57 55 55 56 58 59 59 60 61 62 62 60 62 61 53 61 80 81 93 97 105 84 82 102 107 98 98 94 79 61 63 57 58 61 60 59 57 57 56 56
114 117 119 139 144 141 140 138 136 132 148 153 155 169 171 160 142 145 123 118 113 112 112 112 119 105 109 99 78 83 70 60 167 148 139 122 105 89 83 72 71 74 78 84 84 85 83 104 125 145 150 137 129 112 103 96 87 70 59 56 53 56 61 62 60 54 51 54 54 51 53 54 46 44 47 46 62 69 68 109 124 123 145 135 118 119 120 131 132 119 115 94 77 76 59 66 51 51 50 49 52 53 51 48 55 92 95 182 182 187 196 191 172 157 149 132 132 128 119 113 98 96 91 77 75 74 65 68 71 72 66 77 86 88 111 120 121 119 117 115 116 118 122 124 122 120 124 129 138 147 155 167 173 174 167 165 141 136 117 123 76 70 67 61 56 64 71 103 143 160 169 175 180 182 183 179 161 148 121 96 80 70 66 66 62 58 55 55 54 55 55 56 63 64 63 58 59 60 56 63 81 82 90 94 102 81 79 97 101 91 90 82 74 60 63 58 58 60 61 59 58 58 58 58
111 113 115 135 140 132 131 129 129 131 139 144 145 156 153 143 126 128 104 99 97 96 95 100 112 102 107 100 84 88 70 60 160 141 132 116 100 84 78 65 61 61 62 67 67 68 70 93 115 132 132 112 101 83 79 76 74 66 60 60 58 60 61 61 55 52 52 56 59 56 54 53 48 46 48 46 46 46 50 68 74 89 118 115 104 102 110 115 112 128 129 104 89 85 66 76 49 49 50 51 52 52 51 49 62 96 96 172 172 183 191 188 172 159 152 127 128 121 112 105 90 87 85 77 73 77 68 72 70 72 70 82 94 95 104 106 105 104 104 103 105 109 114 118 117 115 115 118 124 136 146 153 151 152 145 149 135 135 119 124 69 67 64 60 56 62 68 90 117 129 137 146 157 159 161 153 133 121 98 82 74 70 66 62 56 53 51 51 50 49 50 50 65 66 65 59 59 61 57 64 85 84 90 91 99 82 81 96 100 88 88 81 73 60 62 59 59 60 61 59 58 58 58 58
111 115 118 137 141 131 131 131 133 134 139 147 149 155 152 147 133 136 109 101 103 103 101 107 113 103 103 98 87 81 66 59 156 137 128 114 97 81 75 64 59 58 59 62 63 65 67 89 110 124 123 104 92 74 72 72 72 66 61 62 61 61 59 59 53 53 55 54 52 51 52 53 52 51 49 47 47 43 55 68 77 82 120 116 107 101 110 118 116 133 121 105 94 87 63 76 50 49 50 51 52 52 50 47 59 90 85 142 140 137 143 141 130 120 118 94 102 102 95 92 86 87 87 80 74 80 79 84 76 79 78 86 100 95 88 79 75 72 73 72 72 71 70 69 70 69 65 62 63 63 80 91 89 98 95 106 107 114 103 113 65 65 65 62 59 62 67 82 100 109 114 125 140 143 145 134 114 103 82 72 69 70 66 60 54 51 48 48 47 46 47 47 66 67 66 68 64 65 61 64 92 89 91 88 94 94 96 104 110 95 70 71 67 61 63 61 61 61 60 59 59 59 59 59
70 74 75 88 90 88 89 88 87 86 96 106 113 118 114 110 99 104 83 70 75 74 73 79 81 78 81 88 97 108 95 89 150 133 125 111 94 78 73 63 58 56 56 55 57 61 65 83 100 111 111 92 80 63 63 66 69 66 64 64 64 62 58 56 56 58 60 54 47 49 53 55 57 57 52 50 50 44 50 64 74 81 124 116 111 102 105 100 101 124 121 112 110 101 69 81 47 47 48 47 48 49 47 46 60 94 96 139 142 142 141 137 129 123 112 89 92 89 84 85 80 80 82 77 75 87 90 99 74 78 82 87 102 93 91 90 80 70 68 69 71 75 82 86 79 68 65 65 67 72 91 101 95 104 100 112 113 121 109 113 59 64 67 71 70 69 69 69 70 73 77 85 97 99 98 87 78 72 67 65 65 67 67 62 55 49 46 47 48 47 50 51 65 66 66 63 59 64 62 64 96 91 92 87 91 101 104 109 114 98 64 69 66 64 64 63 62 61 60 60 60 60 60 60
79 81 78 85 84 88 90 92 91 90 87 93 101 106 109 106 92 96 79 67 75 74 72 78 74 70 74 86 105 105 94 92 145 128 119 103 86 70 65 57 54 52 52 52 53 56 60 73 84 91 90 77 69 57 58 60 61 61 59 59 59 58 55 53 62 64 64 58 54 56 56 56 62 62 55 53 50 50 52 66 70 77 122 112 112 105 104 86 92 113 116 113 118 111 72 82 42 44 45 47 49 51 52 51 70 95 85 101 100 88 81 73 65 61 69 63 69 68 69 69 62 62 67 66 74 96 102 118 75 95 85 91 89 96 70 66 63 59 57 58 61 63 67 70 66 59 59 63 59 63 65 67 65 61 69 71 77 81 83 80 56 62 64 71 74 74 73 68 61 59 59 63 72 74 78 75 71 68 63 63 63 66 70 68 64 59 54 51 46 45 49 50 63 64 63 63 61 69 70 73 101 97 93 87 90 101 103 105 110 92 65 69 69 64 65 64 63 62 61 61 61 61 61 61
72 71 70 72 73 77 79 81 81 81 84 85 90 95 98 96 87 87 74 66 72 72 74 78 76 71 68 72 83 83 84 90 136 120 112 95 78 65 61 57 56 54 53 50 50 52 54 58 63 67 66 60 56 51 52 54 56 56 55 56 56 57 55 53 57 58 60 56 56 59 58 58 66 66 58 54 53 52 55 61 67 74 104 101 115 117 115 115 116 126 130 128 136 122 72 85 44 42 43 47 49 52 54 51 67 97 89 105 101 100 87 78 72 67 67 64 65 65 67 66 60 58 62 62 75 100 106 127 80 99 92 97 90 97 71 61 61 61 61 59 58 60 61 63 63 59 59 63 59 56 58 59 58 54 55 57 62 66 67 69 57 61 66 71 74 73 72 65 57 56 56 60 67 71 73 71 69 67 63 62 62 64 67 65 64 61 55 53 48 48 50 51 61 61 61 65 65 76 77 79 107 104 95 89 92 106 107 104 109 96 70 72 73 64 65 65 63 62 63 63 62 62 62 62
68 65 68 65 71 73 73 73 75 77 70 69 76 80 81 79 76 74 65 59 62 62 67 71 69 61 56 55 59 63 74 83 134 119 112 94 78 66 62 59 59 57 55 51 50 51 52 56 60 63 62 58 56 52 54 55 59 58 56 57 58 58 57 55 51 52 54 52 55 60 61 61 65 66 60 55 55 55 57 62 67 61 82 88 116 120 125 132 131 137 138 136 147 128 72 86 46 42 44 45 45 49 52 48 68 99 89 104 94 93 79 74 72 69 63 64 65 67 68 66 63 61 64 63 76 97 103 128 78 93 97 99 85 91 70 61 62 64 65 64 63 63 63 64 63 59 59 63 59 62 63 65 63 60 64 65 69 72 73 75 59 63 66 70 72 70 67 59 53 54 53 56 62 64 67 67 66 64 62 62 59 59 60 59 61 62 58 55 53 51 52 53 59 59 59 60 64 78 78 82 112 108 98 92 95 105 109 99 99 93 73 73 73 65 67 66 64 63 63 63 63 63 63 63
73 69 70 65 68 72 70 71 77 80 75 74 80 84 85 82 79 76 68 62 67 69 71 76 76 66 59 59 60 61 72 80 132 117 111 94 79 68 66 66 66 65 63 56 52 49 49 53 56 58 59 57 57 56 60 62 64 62 61 61 62 61 59 58 51 52 52 51 55 62 65 63 63 62 59 55 55 55 57 60 63 75 87 98 123 117 127 138 129 134 135 138 148 127 74 90 46 44 46 44 43 46 50 49 59 80 67 68 57 58 48 46 47 46 49 56 59 60 62 60 58 60 63 63 74 93 101 133 84 96 100 98 74 78 62 56 56 56 57 59 63 62 61 61 61 59 59 63 59 57 59 60 59 55 61 62 65 68 69 65 61 63 64 66 67 65 63 57 54 54 55 58 62 64 65 64 62 60 60 62 60 57 54 54 55 57 59 61 62 60 59 59 59 59 59 57 65 88 85 91 116 112 103 96 98 104 104 88 79 77 66 68 71 67 70 69 66 63 63 63 64 64 64 64
76 73 75 67 69 71 71 73 77 79 71 66 69 69 68 65 61 60 54 52 59 61 60 66 68 55 47 48 46 43 46 46 131 115 108 92 77 69 67 67 68 66 64 57 53 50 49 53 56 58 60 60 61 62 63 63 65 63 62 62 61 61 60 60 53 55 56 55 59 64 66 63 57 56 57 54 51 52 53 54 54 53 60 72 90 81 94 123 119 131 133 114 114 101 61 79 54 49 46 45 40 41 46 47 60 71 64 58 51 55 45 43 45 44 43 54 56 59 63 62 64 64 63 63 74 86 97 138 91 98 106 97 71 65 61 60 60 58 57 58 59 58 57 57 59 59 58 59 57 59 60 61 60 58 60 62 65 67 67 61 62 63 62 62 62 60 60 59 56 56 54 56 60 61 63 63 61 61 60 62 64 63 61 58 58 60 64 66 66 65 64 63 61 61 61 52 64 91 87 94 118 114 104 96 98 102 101 88 77 75 70 70 72 69 72 71 67 63 63 64 65 65 65 65
77 75 78 70 71 70 74 76 75 74 76 71 73 74 72 68 65 66 63 61 67 69 64 68 72 58 51 54 51 50 43 42 132 111 102 86 71 64 62 62 62 62 61 55 53 52 51 54 56 59 59 61 62 59 58 58 58 58 57 57 57 56 56 57 52 54 59 60 61 66 66 62 54 53 55 52 48 49 50 50 49 57 58 60 73 67 86 128 128 134 128 122 112 97 61 76 62 50 49 47 40 39 43 45 51 57 57 48 45 52 42 42 44 44 51 60 59 65 69 69 78 81 75 71 77 84 95 140 97 95 97 90 71 62 65 62 61 60 59 59 59 59 59 59 60 60 58 56 55 58 58 58 58 58 59 62 66 66 65 64 61 63 63 63 62 60 58 57 56 55 54 55 59 60 61 61 59 59 59 61 63 63 60 58 58 60 63 64 65 64 64 63 62 62 61 53 60 91 92 95 116 112 103 97 97 96 93 84 75 73 73 72 74 69 72 68 63 64 63 62 64 65 66 65
75 75 76 71 70 71 74 76 74 73 70 68 70 72 70 66 62 65 65 61 65 67 61 62 65 53 47 51 47 50 41 39 131 106 98 81 67 60 58 58 58 57 57 54 52 52 53 54 55 57 57 59 60 57 54 53 52 54 54 55 54 54 54 55 53 57 62 69 70 64 60 61 57 52 50 53 48 48 49 49 49 49 49 50 70 61 77 113 109 104 104 88 82 74 54 66 63 52 49 46 37 37 38 40 48 56 56 46 46 47 42 43 49 52 56 58 57 66 71 75 86 88 82 76 78 85 95 139 98 88 80 79 64 61 68 66 65 64 64 62 60 60 60 60 60 60 59 57 56 58 58 58 58 58 59 62 66 67 65 65 60 63 64 66 64 59 56 53 53 53 52 54 57 58 59 58 57 56 56 59 61 62 60 58 57 59 59 60 60 61 62 63 64 64 63 65 71 102 109 104 114 110 103 98 96 92 86 76 72 73 73 72 73 69 70 63 57 64 64 62 64 66 67 66

